<svg width="64" height="64" viewBox="0 0 64 64" fill="none" xmlns="http://www.w3.org/2000/svg">
<path d="M30 1.1547C31.2376 0.440169 32.7624 0.440169 34 1.1547L57.7128 14.8453C58.9504 15.5598 59.7128 16.8803 59.7128 18.3094V45.6906C59.7128 47.1197 58.9504 48.4402 57.7128 49.1547L34 62.8453C32.7624 63.5598 31.2376 63.5598 30 62.8453L6.28719 49.1547C5.04958 48.4402 4.28719 47.1197 4.28719 45.6906V18.3094C4.28719 16.8803 5.04958 15.5598 6.28719 14.8453L30 1.1547Z" fill="#030917"/>
<path d="M39.1579 21.88V35.224C39.1579 37.7627 38.4432 39.7467 37.0139 41.176C35.5845 42.6053 33.5579 43.32 30.9339 43.32C29.0565 43.32 27.5312 42.9787 26.3579 42.296C25.1845 41.6133 24.3739 40.6533 23.9259 39.416C23.4779 38.1787 23.3925 36.76 23.6699 35.16L27.9579 34.392C27.7019 36.2693 27.8192 37.624 28.3099 38.456C28.8005 39.288 29.7072 39.704 31.0299 39.704C32.4165 39.704 33.3765 39.2773 33.9099 38.424C34.4645 37.5707 34.7419 36.3013 34.7419 34.616V21.88H39.1579Z" fill="#FAFCFC"/>
</svg>
