<svg width="24" height="24" viewBox="0 0 24 24" fill="none" xmlns="http://www.w3.org/2000/svg">
<path d="M20.25 20.4375C19.8032 20.435 19.3754 20.2564 19.0595 19.9405C18.7435 19.6246 18.565 19.1968 18.5625 18.75V18C18.5616 17.4792 18.4166 16.9689 18.1436 16.5255C17.8706 16.082 17.4802 15.7228 17.0156 15.4875C17.7205 15.0277 18.2997 14.3995 18.7007 13.6596C19.1018 12.9198 19.312 12.0916 19.3125 11.25V10.5C19.3069 9.57125 19.0511 8.66119 18.5719 7.86562C18.8098 7.1418 18.8919 6.37582 18.8127 5.61802C18.7336 4.86021 18.4949 4.12774 18.1125 3.46874C18.0631 3.38318 17.992 3.31213 17.9065 3.26276C17.8209 3.21339 17.7238 3.18743 17.625 3.18749C16.7645 3.18505 15.9159 3.38791 15.1496 3.77923C14.3832 4.17055 13.7213 4.73904 13.2188 5.43749H10.7812C10.2787 4.73904 9.61677 4.17055 8.85043 3.77923C8.0841 3.38791 7.23546 3.18505 6.375 3.18749C6.2762 3.18743 6.17913 3.21339 6.09355 3.26276C6.00797 3.31213 5.9369 3.38318 5.8875 3.46874C5.50507 4.12774 5.26642 4.86021 5.18725 5.61802C5.10808 6.37582 5.19017 7.1418 5.42813 7.86562C4.94892 8.66119 4.69306 9.57125 4.6875 10.5V11.25C4.68797 12.0916 4.89823 12.9198 5.29927 13.6596C5.70031 14.3995 6.27948 15.0277 6.98438 15.4875C6.51981 15.7228 6.12942 16.082 5.85641 16.5255C5.58339 16.9689 5.43841 17.4792 5.4375 18V18.75C5.43504 19.1968 5.25646 19.6246 4.94052 19.9405C4.62459 20.2564 4.19679 20.435 3.75 20.4375C3.60082 20.4375 3.45774 20.4968 3.35225 20.6022C3.24676 20.7077 3.1875 20.8508 3.1875 21C3.1875 21.1492 3.24676 21.2922 3.35225 21.3977C3.45774 21.5032 3.60082 21.5625 3.75 21.5625C4.49516 21.56 5.2091 21.2629 5.73601 20.736C6.26292 20.2091 6.56003 19.4952 6.5625 18.75V18C6.56496 17.5532 6.74354 17.1254 7.05948 16.8095C7.37541 16.4935 7.80321 16.315 8.25 16.3125H9.5625V20.25C9.56004 20.6968 9.38146 21.1246 9.06552 21.4405C8.74959 21.7564 8.32179 21.935 7.875 21.9375C7.72582 21.9375 7.58274 21.9968 7.47725 22.1022C7.37176 22.2077 7.3125 22.3508 7.3125 22.5C7.3125 22.6492 7.37176 22.7922 7.47725 22.8977C7.58274 23.0032 7.72582 23.0625 7.875 23.0625C8.62016 23.06 9.3341 22.7629 9.86101 22.236C10.3879 21.7091 10.685 20.9952 10.6875 20.25V16.3125H13.3125V20.25C13.315 20.9952 13.6121 21.7091 14.139 22.236C14.6659 22.7629 15.3798 23.06 16.125 23.0625C16.2742 23.0625 16.4173 23.0032 16.5227 22.8977C16.6282 22.7922 16.6875 22.6492 16.6875 22.5C16.6875 22.3508 16.6282 22.2077 16.5227 22.1022C16.4173 21.9968 16.2742 21.9375 16.125 21.9375C15.6782 21.935 15.2504 21.7564 14.9345 21.4405C14.6185 21.1246 14.44 20.6968 14.4375 20.25V16.3125H15.75C16.1968 16.315 16.6246 16.4935 16.9405 16.8095C17.2565 17.1254 17.435 17.5532 17.4375 18V18.75C17.44 19.4952 17.7371 20.2091 18.264 20.736C18.7909 21.2629 19.5048 21.56 20.25 21.5625C20.3992 21.5625 20.5423 21.5032 20.6477 21.3977C20.7532 21.2922 20.8125 21.1492 20.8125 21C20.8125 20.8508 20.7532 20.7077 20.6477 20.6022C20.5423 20.4968 20.3992 20.4375 20.25 20.4375ZM5.8125 11.25V10.5C5.81967 9.70857 6.05751 8.93642 6.49688 8.27812C6.55478 8.20143 6.59207 8.1112 6.6052 8.01601C6.61833 7.92082 6.60686 7.82386 6.57187 7.73437C6.3608 7.18647 6.26358 6.60131 6.28615 6.0146C6.30872 5.42789 6.45059 4.85193 6.70312 4.32187C7.3704 4.37222 8.0168 4.57718 8.59118 4.9205C9.16557 5.26383 9.65217 5.73612 10.0125 6.29999C10.0612 6.38059 10.13 6.44716 10.2122 6.49318C10.2944 6.53919 10.3871 6.56308 10.4813 6.56249H13.5187C13.6129 6.56308 13.7056 6.53919 13.7878 6.49318C13.87 6.44716 13.9388 6.38059 13.9875 6.29999C14.3478 5.73612 14.8344 5.26383 15.4088 4.9205C15.9832 4.57718 16.6296 4.37222 17.2969 4.32187C17.5494 4.85193 17.6913 5.42789 17.7138 6.0146C17.7364 6.60131 17.6392 7.18647 17.4281 7.73437C17.3957 7.8243 17.3856 7.92077 17.3986 8.01548C17.4117 8.1102 17.4475 8.20032 17.5031 8.27812C17.9425 8.93642 18.1803 9.70857 18.1875 10.5V11.25C18.1875 12.2943 17.7727 13.2958 17.0342 14.0342C16.2958 14.7726 15.2943 15.1875 14.25 15.1875H9.75C8.70571 15.1875 7.70419 14.7726 6.96577 14.0342C6.22734 13.2958 5.8125 12.2943 5.8125 11.25Z" fill="currentColor"/>
</svg>
